# Blender v2.74 (sub 0) OBJ File: ''
# www.blender.org
o Cylinder
v 0.000000 0.000000 -1.000000
v 0.000000 1.000000 -1.000000
v 0.382683 0.000000 -0.923880
v 0.382683 1.000000 -0.923880
v 0.707107 0.000000 -0.707107
v 0.707107 1.000000 -0.707107
v 0.923880 0.000000 -0.382683
v 0.923880 1.000000 -0.382683
v 1.000000 0.000000 0.000000
v 1.000000 1.000000 0.000000
v 0.923880 0.000000 0.382684
v 0.923880 1.000000 0.382684
v 0.707107 0.000000 0.707107
v 0.707107 1.000000 0.707107
v 0.382683 0.000000 0.923880
v 0.382683 1.000000 0.923880
v 0.000000 0.000000 1.000000
v 0.000000 1.000000 1.000000
v -0.382683 0.000000 0.923880
v -0.382683 1.000000 0.923880
v -0.707107 0.000000 0.707107
v -0.707107 1.000000 0.707107
v -0.923880 0.000000 0.382684
v -0.923880 1.000000 0.382684
v -1.000000 0.000000 -0.000000
v -1.000000 1.000000 -0.000000
v -0.923879 0.000000 -0.382684
v -0.923879 1.000000 -0.382684
v -0.707107 0.000000 -0.707107
v -0.707107 1.000000 -0.707107
v -0.382683 0.000000 -0.923880
v -0.382683 1.000000 -0.923880
v 0.382683 1.000000 -0.923880
v 0.000000 1.000000 -1.000000
v 0.707107 1.000000 -0.707107
v 0.923880 1.000000 -0.382683
v 1.000000 1.000000 0.000000
v 0.923880 1.000000 0.382684
v 0.707107 1.000000 0.707107
v 0.382683 1.000000 0.923880
v 0.000000 1.000000 1.000000
v -0.382683 1.000000 0.923880
v -0.707107 1.000000 0.707107
v -0.923880 1.000000 0.382684
v -1.000000 1.000000 -0.000000
v -0.923879 1.000000 -0.382684
v -0.707107 1.000000 -0.707107
v -0.382683 1.000000 -0.923880
v 0.000000 0.000000 -1.000000
v 0.382683 0.000000 -0.923880
v 0.707107 0.000000 -0.707107
v 0.923880 0.000000 -0.382683
v 1.000000 0.000000 0.000000
v 0.923880 0.000000 0.382684
v 0.707107 0.000000 0.707107
v 0.382683 0.000000 0.923880
v 0.000000 0.000000 1.000000
v -0.382683 0.000000 0.923880
v -0.707107 0.000000 0.707107
v -0.923880 0.000000 0.382684
v -1.000000 0.000000 -0.000000
v -0.923879 0.000000 -0.382684
v -0.707107 0.000000 -0.707107
v -0.382683 0.000000 -0.923880
vt 1.000000 0.000000
vt 1.000000 1.000000
vt 0.000000 1.000000
vt 0.500000 1.000000
vt 1.000000 0.500000
vt 0.500000 0.000000
vt 0.853553 0.146447
vt 0.000000 0.000000
vt 0.000000 0.500000
vt 0.308659 0.961940
vt 0.038060 0.691342
vt 0.146447 0.853554
vt 0.146447 0.146446
vt 0.038060 0.308658
vt 0.308658 0.038060
vt 0.691342 0.038060
vt 0.961940 0.308658
vt 0.961940 0.691342
vt 0.691342 0.961940
vt 0.853553 0.853553
vn 0.000000 0.000000 -1.000000
vn 0.382700 0.000000 -0.923900
vn 0.707100 0.000000 -0.707100
vn 0.923900 0.000000 -0.382700
vn 1.000000 0.000000 0.000000
vn 0.923900 0.000000 0.382700
vn 0.707100 0.000000 0.707100
vn 0.382700 0.000000 0.923900
vn 0.000000 0.000000 1.000000
vn -0.382700 0.000000 0.923900
vn -0.707100 0.000000 0.707100
vn -0.923900 0.000000 0.382700
vn -1.000000 0.000000 0.000000
vn -0.923900 0.000000 -0.382700
vn -0.707100 0.000000 -0.707100
vn 0.000000 1.000000 0.000000
vn -0.382700 0.000000 -0.923900
vn 0.000000 -1.000000 0.000000
s 1
f 2/1/1 4/2/2 3/3/2
f 4/1/2 6/2/3 5/3/3
f 6/1/3 8/2/4 7/3/4
f 8/1/4 10/2/5 9/3/5
f 10/1/5 12/2/6 11/3/6
f 12/1/6 14/2/7 13/3/7
f 14/1/7 16/2/8 15/3/8
f 16/1/8 18/2/9 17/3/9
f 18/1/9 20/2/10 19/3/10
f 20/1/10 22/2/11 21/3/11
f 22/1/11 24/2/12 23/3/12
f 24/1/12 26/2/13 25/3/13
f 26/1/13 28/2/14 27/3/14
f 28/1/14 30/2/15 29/3/15
f 33/4/16 46/5/16 42/6/16
f 48/1/17 2/2/1 1/3/1
f 30/1/15 48/2/17 31/3/17
f 49/4/18 53/5/18 55/7/18
f 1/8/1 2/1/1 3/3/2
f 3/8/2 4/1/2 5/3/3
f 5/8/3 6/1/3 7/3/4
f 7/8/4 8/1/4 9/3/5
f 9/8/5 10/1/5 11/3/6
f 11/8/6 12/1/6 13/3/7
f 13/8/7 14/1/7 15/3/8
f 15/8/8 16/1/8 17/3/9
f 17/8/9 18/1/9 19/3/10
f 19/8/10 20/1/10 21/3/11
f 21/8/11 22/1/11 23/3/12
f 23/8/12 24/1/12 25/3/13
f 25/8/13 26/1/13 27/3/14
f 27/8/14 28/1/14 29/3/15
f 38/9/16 35/10/16 33/4/16
f 38/9/16 37/11/16 36/12/16
f 40/13/16 39/14/16 38/9/16
f 42/6/16 41/15/16 40/13/16
f 44/7/16 43/16/16 42/6/16
f 46/5/16 45/17/16 44/7/16
f 33/4/16 47/18/16 46/5/16
f 33/4/16 34/19/16 32/20/16
f 38/9/16 36/12/16 35/10/16
f 42/6/16 40/13/16 38/9/16
f 46/5/16 44/7/16 42/6/16
f 33/4/16 32/20/16 47/18/16
f 42/6/16 38/9/16 33/4/16
f 31/8/17 48/1/17 1/3/1
f 29/8/15 30/1/15 31/3/17
f 63/12/18 64/10/18 49/4/18
f 61/9/18 62/11/18 63/12/18
f 59/13/18 60/14/18 61/9/18
f 57/6/18 58/15/18 59/13/18
f 55/7/18 56/16/18 57/6/18
f 53/5/18 54/17/18 55/7/18
f 51/20/18 52/18/18 53/5/18
f 49/4/18 50/19/18 51/20/18
f 57/6/18 63/12/18 49/4/18
f 57/6/18 59/13/18 61/9/18
f 49/4/18 55/7/18 57/6/18
f 49/4/18 51/20/18 53/5/18
f 57/6/18 61/9/18 63/12/18
